<?xml version="1.0" encoding="UTF-8"?>
<svg version="1.1" xmlns="http://www.w3.org/2000/svg" width="498" height="497">
<path d="M0 0 C1.43245308 0.01561981 1.43245308 0.01561981 2.8938446 0.03155518 C3.9250795 0.04917908 4.95631439 0.06680298 6.01879883 0.08496094 C7.0831868 0.10145691 8.14757477 0.11795288 9.24421692 0.13494873 C11.49961353 0.17246799 13.75496146 0.21301677 16.01025391 0.25634766 C19.44468621 0.31876988 22.87897443 0.36041568 26.3137207 0.40136719 C28.50710338 0.44044509 30.70046427 0.48076991 32.89379883 0.52246094 C33.91491257 0.53198792 34.93602631 0.54151489 35.98808289 0.55133057 C42.73399729 0.71131688 48.96162569 1.29182184 54.34692383 5.78808594 C55.02948242 6.66980469 55.02948242 6.66980469 55.72583008 7.56933594 C56.19891602 8.15714844 56.67200195 8.74496094 57.15942383 9.35058594 C59.94140004 13.58612066 59.82954534 18.19839858 59.28833008 23.06933594 C56.5722951 32.5387552 47.86012434 40.24487881 40.28833008 46.06933594 C42.83698569 48.692952 45.244619 51.03607751 48.16333008 53.25683594 C57.45605268 60.91384971 63.85869644 74.17745392 69.16333008 84.75683594 C73.76590659 93.31162489 80.9542304 100.87803308 90.28833008 104.06933594 C90.9612207 104.30265625 91.63411133 104.53597656 92.32739258 104.77636719 C102.6841112 107.6950788 113.75354432 105.69309144 123.28833008 101.06933594 C127.05712624 98.8767529 130.69767901 96.5418152 134.28833008 94.06933594 C134.61833008 95.05933594 134.94833008 96.04933594 135.28833008 97.06933594 C126.98141193 107.26325772 117.69968727 115.27902365 104.28833008 117.06933594 C90.69099005 118.18412583 77.91417971 117.61003182 66.95239258 108.56542969 C59.11011309 101.51474179 52.77325931 93.73738424 47.28833008 84.75683594 C46.24944499 83.0822467 45.21038331 81.40776699 44.17114258 79.73339844 C43.67775391 78.93321289 43.18436523 78.13302734 42.67602539 77.30859375 C40.36212177 73.57475772 37.97463994 69.88916441 35.59301758 66.19824219 C34.28833008 64.06933594 34.28833008 64.06933594 33.27270508 61.86230469 C31.85584836 59.28160138 30.01030539 58.92890709 27.28833008 58.06933594 C27.28833008 57.40933594 27.28833008 56.74933594 27.28833008 56.06933594 C25.63833008 56.06933594 23.98833008 56.06933594 22.28833008 56.06933594 C22.28833008 56.72933594 22.28833008 57.38933594 22.28833008 58.06933594 C19.97833008 58.72933594 17.66833008 59.38933594 15.28833008 60.06933594 C15.42756546 63.31965377 15.57587192 66.56949655 15.72583008 69.81933594 C15.76514648 70.73972656 15.80446289 71.66011719 15.8449707 72.60839844 C15.88686523 73.49785156 15.92875977 74.38730469 15.97192383 75.30371094 C16.00858154 76.1206543 16.04523926 76.93759766 16.08300781 77.77929688 C16.27967283 79.97277824 16.69133602 81.95330007 17.28833008 84.06933594 C17.94833008 84.06933594 18.60833008 84.06933594 19.28833008 84.06933594 C19.28833008 84.72933594 19.28833008 85.38933594 19.28833008 86.06933594 C20.77333008 86.56433594 20.77333008 86.56433594 22.28833008 87.06933594 C21.95833008 87.72933594 21.62833008 88.38933594 21.28833008 89.06933594 C11.71833008 89.06933594 2.14833008 89.06933594 -7.71166992 89.06933594 C-7.71166992 88.07933594 -7.71166992 87.08933594 -7.71166992 86.06933594 C-7.09291992 85.63621094 -6.47416992 85.20308594 -5.83666992 84.75683594 C-2.96769721 82.47853408 -2.65031205 80.58983322 -1.71166992 77.06933594 C-1.38866543 73.71741344 -1.38866543 73.71741344 -1.39282227 70.14599609 C-1.38277664 69.48187714 -1.37273102 68.81775818 -1.36238098 68.1335144 C-1.33171731 65.95848382 -1.31456137 63.78357534 -1.29760742 61.60839844 C-1.27888218 60.09238649 -1.25930776 58.57638482 -1.23892212 57.06039429 C-1.18773801 53.0853686 -1.14803923 49.11030917 -1.11077881 45.13513184 C-1.07065277 41.07275134 -1.01959979 37.01050953 -0.96948242 32.94824219 C-0.87288576 24.98870175 -0.78842939 17.02909229 -0.71166992 9.06933594 C-1.33557617 8.78058594 -1.95948242 8.49183594 -2.60229492 8.19433594 C-5.11157256 6.85605453 -6.21487817 5.46420273 -7.71166992 3.06933594 C-7.71166992 2.40933594 -7.71166992 1.74933594 -7.71166992 1.06933594 C-4.79711115 0.09781635 -3.0255216 -0.03940724 0 0 Z M15.28833008 10.06933594 C14.5824522 13.40897667 14.70688177 16.684845 14.80004883 20.08496094 C14.80712357 21.05592712 14.8141983 22.02689331 14.82148743 23.02728271 C14.84945374 26.12542088 14.9121974 29.22174502 14.97583008 32.31933594 C15.00091001 34.42087232 15.02372371 36.52243706 15.04418945 38.62402344 C15.09928801 43.77315881 15.18557715 48.92093994 15.28833008 54.06933594 C15.94833008 54.06933594 16.60833008 54.06933594 17.28833008 54.06933594 C17.28833008 53.40933594 17.28833008 52.74933594 17.28833008 52.06933594 C18.09270508 51.72902344 18.09270508 51.72902344 18.91333008 51.38183594 C28.42430707 46.1257697 35.08928561 36.45859573 38.66333008 26.34277344 C40.31978324 20.31742506 39.27096854 16.25711067 36.55395508 10.86621094 C35.00000276 8.65998233 33.61980449 7.44006068 31.28833008 6.06933594 C28.64691407 5.55974684 28.64691407 5.55974684 25.85083008 5.63183594 C24.46057617 5.60283203 24.46057617 5.60283203 23.04223633 5.57324219 C19.2752493 6.25183418 17.87820567 7.21966848 15.28833008 10.06933594 Z " fill="#FAFCFC" transform="translate(57.711669921875,253.9306640625)"/>
<path d="M0 0 C1.98140428 1.8854525 3.40292631 3.75411512 5 6 C7.75784967 4.67916734 10.27177646 3.19726542 12.8125 1.5 C18.80993616 -2.25809771 24.90593279 -3.86480057 32 -3 C36.1200352 -2.03940892 39.16917141 -0.72150904 42.375 2.0625 C47.32094398 11.00324489 46.39129858 22.17830407 46.5625 32.125 C46.60681483 34.40079651 46.65378186 36.67647295 46.70530701 38.95211792 C46.75119363 41.01109457 46.78905699 43.0702455 46.82641602 45.12939453 C46.84933083 52.55385444 46.84933083 52.55385444 49.62890625 59.09375 C50.26699219 59.5578125 50.90507812 60.021875 51.5625 60.5 C52.20316406 60.9846875 52.84382813 61.469375 53.50390625 61.96875 C53.99761719 62.3090625 54.49132812 62.649375 55 63 C53 65 53 65 50.01904297 65.22705078 C48.77268066 65.21657715 47.52631836 65.20610352 46.2421875 65.1953125 C45.57913605 65.1924826 44.91608459 65.18965271 44.23294067 65.18673706 C42.11344417 65.17553435 39.99436896 65.15043051 37.875 65.125 C36.43880818 65.11497028 35.00260975 65.10584441 33.56640625 65.09765625 C30.04413372 65.075595 26.52210797 65.04106494 23 65 C24.09132884 62.45356603 24.89429732 61.08382594 27.09619141 59.33764648 C30.05427216 55.70548142 29.53498844 52.14431633 29.4609375 47.59765625 C29.46002106 46.68294052 29.45910461 45.76822479 29.4581604 44.82579041 C29.45212477 42.89332891 29.4363799 40.96087676 29.41162109 39.02856445 C29.3751745 36.07663332 29.37060144 33.12596052 29.37109375 30.17382812 C29.36125974 28.29426003 29.3496015 26.41470041 29.3359375 24.53515625 C29.33371185 23.65481216 29.33148621 22.77446808 29.32919312 21.8674469 C29.24680649 16.52392318 28.90957006 12.36786688 25.4375 8.0625 C22.03257334 6.5783012 19.71822008 7.19776399 16.1875 8.12109375 C13.02411519 9.39209657 11.17476453 11.42982373 9 14 C8.34 14.33 7.68 14.66 7 15 C7 28.53 7 42.06 7 56 C7.66 56.33 8.32 56.66 9 57 C9.28875 57.639375 9.5775 58.27875 9.875 58.9375 C11.22909764 61.42001234 12.42178493 61.96871397 15 63 C13 65 13 65 10.11083984 65.22705078 C8.30413818 65.21134033 8.30413818 65.21134033 6.4609375 65.1953125 C4.50800781 65.18564453 4.50800781 65.18564453 2.515625 65.17578125 C1.13541405 65.15906929 -0.24479429 65.14213939 -1.625 65.125 C-3.01301452 65.11497006 -4.40103589 65.10584423 -5.7890625 65.09765625 C-9.19288026 65.07401863 -12.59635506 65.04106867 -16 65 C-15.59515958 62.16611706 -15.11839326 61.11421073 -13.01660156 59.08666992 C-8.10477876 54.00418209 -8.87351436 44.8429415 -8.953125 38.16796875 C-9.03937076 35.84063996 -9.13842294 33.51375196 -9.25 31.1875 C-9.30994141 29.4250293 -9.30994141 29.4250293 -9.37109375 27.62695312 C-9.55579108 17.86986306 -9.55579108 17.86986306 -13.375 9.125 C-15.43367663 7.69976234 -16.46782056 7.14067664 -19 7 C-25.81392891 8.87049029 -31.21575909 13.02824029 -35 19 C-36.57115344 24.84984322 -36.17045738 31.05970761 -36.0625 37.0625 C-36.06557937 38.707695 -36.07270609 40.35288765 -36.08398438 41.99804688 C-36.10269599 46.00019551 -36.06650775 49.99839735 -36 54 C-35.34 54 -34.68 54 -34 54 C-33.773125 54.721875 -33.54625 55.44375 -33.3125 56.1875 C-31.75168987 59.53209313 -29.6968713 61.51603959 -27 64 C-31.57662216 66.28831108 -37.97497292 65.18502705 -43 65.1875 C-44.3096875 65.19974609 -45.619375 65.21199219 -46.96875 65.22460938 C-48.84046875 65.22750977 -48.84046875 65.22750977 -50.75 65.23046875 C-51.89984375 65.23457764 -53.0496875 65.23868652 -54.234375 65.24291992 C-57 65 -57 65 -59 63 C-58.195625 62.236875 -57.39125 61.47375 -56.5625 60.6875 C-53.27363022 57.23819755 -52.88063858 54.92545569 -52.79467773 50.3449707 C-52.77473251 49.40422195 -52.75478729 48.46347321 -52.73423767 47.49421692 C-52.70916893 45.97534126 -52.70916893 45.97534126 -52.68359375 44.42578125 C-52.66281265 43.38681198 -52.64203156 42.34784271 -52.62062073 41.27738953 C-52.55519344 37.95582747 -52.49627179 34.63418584 -52.4375 31.3125 C-52.39430831 29.0618407 -52.35069381 26.81118948 -52.30664062 24.56054688 C-52.19951902 19.0404489 -52.09773984 13.52027163 -52 8 C-52.66 8 -53.32 8 -54 8 C-55.70680947 6.37446717 -57.37660195 4.70884005 -59 3 C-58.67 2.01 -58.34 1.02 -58 0 C-42.89539749 -2.54393305 -42.89539749 -2.54393305 -38 -2 C-35.32072659 2.01891012 -35.84398752 4.24161923 -36 9 C-32.56104912 7.11412371 -29.59830575 4.89896412 -26.5625 2.4375 C-18.53453743 -3.84179746 -9.03021752 -5.25639528 0 0 Z " fill="#FBFDFC" transform="translate(256,173)"/>
<path d="M0 0 C9.44623656 7.33870968 9.44623656 7.33870968 11 12 C6.99617313 10.94636135 3.88012369 9.34894613 0.4375 7.125 C-13.27075182 -1.08787334 -30.75712661 -3.014792 -46.38720703 0.54345703 C-58.93324842 4.69167276 -68.13260136 15.38619023 -74.02734375 26.8046875 C-84.48179089 48.37768562 -90.86020542 72.27508569 -98.33956909 94.99810791 C-99.22020099 97.6674712 -100.10896559 100.33409327 -101 103 C-104.1875 103 -104.1875 103 -108 102 C-113.05672634 96.48270439 -115.34243294 88.50165312 -117.875 81.625 C-118.56251343 79.79291992 -118.56251343 79.79291992 -119.26391602 77.92382812 C-122.24018461 69.95900277 -125.08775755 61.95013186 -127.91015625 53.9296875 C-128.24374146 52.98461334 -128.57732666 52.03953918 -128.92102051 51.06582642 C-130.58520638 46.3500806 -132.23870769 41.6311299 -133.87255859 36.90478516 C-134.48628451 35.15514391 -135.10036345 33.40562645 -135.71484375 31.65625 C-135.98740494 30.85532928 -136.25996613 30.05440857 -136.54078674 29.22921753 C-138.60921269 23.38940473 -141.49166037 19.28292264 -146 15 C-142.73102292 13.91034097 -140.3102475 13.8707053 -136.87109375 13.8671875 C-135.67162109 13.86589844 -134.47214844 13.86460937 -133.23632812 13.86328125 C-131.98271484 13.86714844 -130.72910156 13.87101562 -129.4375 13.875 C-128.18001953 13.87113281 -126.92253906 13.86726563 -125.62695312 13.86328125 C-123.82967773 13.86521484 -123.82967773 13.86521484 -121.99609375 13.8671875 C-120.89450928 13.86831543 -119.7929248 13.86944336 -118.65795898 13.87060547 C-116 14 -116 14 -114 15 C-114.28875 15.556875 -114.5775 16.11375 -114.875 16.6875 C-116.0493164 19.1013726 -117.13061485 21.45872032 -118 24 C-117.67 24.66 -117.34 25.32 -117 26 C-116.960008 27.99960012 -116.95653201 30.00047242 -117 32 C-116.34 32.33 -115.68 32.66 -115 33 C-115.33 33.66 -115.66 34.32 -116 35 C-115.34 35.33 -114.68 35.66 -114 36 C-112.91302385 38.98673626 -111.94615355 41.96740524 -111 45 C-110.39511576 46.83974124 -109.79001813 48.67941529 -109.18118286 50.51785278 C-108.28006329 53.24398781 -107.39058154 55.97386747 -106.5012207 58.70385742 C-106.03891327 60.11929496 -105.5743639 61.53400205 -105.10766602 62.94799805 C-104.4268828 65.01173355 -103.75370406 67.07781542 -103.08203125 69.14453125 C-102.68218018 70.36503174 -102.2823291 71.58553223 -101.87036133 72.84301758 C-101 76 -101 76 -101 80 C-100.34 80 -99.68 80 -99 80 C-98.87850586 78.84081055 -98.75701172 77.68162109 -98.63183594 76.48730469 C-98.10243214 72.27497123 -97.10046192 68.26731509 -95.890625 64.203125 C-95.5775943 63.1307962 -95.5775943 63.1307962 -95.25823975 62.0368042 C-94.81748767 60.53339678 -94.3736174 59.03090028 -93.92675781 57.52929688 C-93.25660465 55.27224422 -92.60031688 53.01148879 -91.9453125 50.75 C-85.80733516 29.80399779 -78.28508976 10.87866878 -59 -1 C-39.30093261 -11.53117109 -19.52468118 -12.18654597 0 0 Z " fill="#FBFDFC" transform="translate(223,135)"/>
<path d="M0 0 C1.16015625 -0.04350586 1.16015625 -0.04350586 2.34375 -0.08789062 C8.70504306 -0.15726714 14.1473348 1.30178713 18.81518555 5.83129883 C26.68667289 15.04434192 24.53101001 29.22111414 24.72680664 40.75244141 C24.76675681 43.00448289 24.81819521 45.25604291 24.87109375 47.5078125 C24.8795079 48.18715851 24.88792206 48.86650452 24.89659119 49.56643677 C25.07844994 56.68176375 26.4215885 62.00124735 31.25 67.3125 C29.00883973 69.55366027 23.88401638 68.54495472 20.875 68.5625 C19.9984375 68.583125 19.121875 68.60375 18.21875 68.625 C17.37570312 68.63015625 16.53265625 68.6353125 15.6640625 68.640625 C14.8901416 68.6499707 14.1162207 68.65931641 13.31884766 68.66894531 C10.75531044 68.22726909 9.88040985 67.28303923 8.25 65.3125 C7.54875 65.60125 6.8475 65.89 6.125 66.1875 C5.17625 66.55875 4.2275 66.93 3.25 67.3125 C2.37472656 67.65925781 1.49945313 68.00601563 0.59765625 68.36328125 C-3.43268579 69.50607369 -7.02337626 69.64340904 -11.1875 69.625 C-12.27514648 69.64916992 -12.27514648 69.64916992 -13.38476562 69.67382812 C-19.83229543 69.67962105 -24.39316677 68.14559251 -29.5625 64.125 C-32.81456061 59.94377922 -34.10723018 56.3234401 -33.4765625 51.0078125 C-32.12892658 45.80978823 -29.95366283 42.86062955 -25.515625 39.91015625 C-17.16199906 35.08440341 -8.61801787 30.63828921 0.125 26.5625 C4.86738725 24.21143535 6.35817936 21.79685748 8.125 16.875 C8.30234795 13.239367 7.25163485 11.31495227 5.25 8.3125 C2.34589475 6.50724538 0.66228154 6.2953216 -2.75 6.4375 C-6.46121192 7.51993681 -8.10423484 8.45785864 -10.75 11.3125 C-11.90549087 13.82981939 -12.8666471 16.35042177 -13.7578125 18.97265625 C-14.8022842 21.43580013 -15.59010394 22.7416665 -17.75 24.3125 C-21.50410778 24.72878211 -24.80954199 24.02496819 -27.8125 21.75 C-29.21384084 18.1065138 -28.90758057 14.95269048 -27.75 11.3125 C-21.3212289 2.39517235 -10.28583105 0.12605185 0 0 Z M-9.875 42.125 C-13.34209586 45.61796971 -14.65342828 48.2984969 -15.125 53.25 C-15.00849637 56.08315653 -14.62110122 57.62185707 -13.5 60.3125 C-8.98753072 63.59429584 -4.1279623 63.12801068 1.25 62.3125 C4.32365786 60.50446596 5.68019732 59.45210536 7.25 56.3125 C7.40411106 54.2817523 7.49982453 52.24643579 7.56640625 50.2109375 C7.60830078 48.99921875 7.65019531 47.7875 7.69335938 46.5390625 C7.73267578 45.26804687 7.77199219 43.99703125 7.8125 42.6875 C7.85568359 41.40875 7.89886719 40.13 7.94335938 38.8125 C8.04969886 35.64594652 8.15172833 32.47931247 8.25 29.3125 C2.45741387 29.3125 -5.86382284 38.22406661 -9.875 42.125 Z " fill="#FBFDFC" transform="translate(352.75,169.6875)"/>
<path d="M0 0 C8.17800637 5.71681588 13.83358123 12.51849367 16.61328125 22.12109375 C17.79627909 32.0582756 16.87484705 42.23597789 10.86328125 50.55859375 C5.61118963 56.69160944 -2.07413278 63.13523393 -10.36914062 63.97973633 C-22.73040585 64.61985703 -32.72870313 64.9280797 -42.515625 56.69140625 C-48.83050241 50.83265963 -53.69265508 44.2005777 -54.3125 35.33984375 C-54.61536096 24.47820895 -53.97953636 15.69145668 -46.31396484 7.27416992 C-41.55332615 2.38567966 -36.68699662 -1.2897148 -30.07421875 -3.25390625 C-29.18089844 -3.53621094 -29.18089844 -3.53621094 -28.26953125 -3.82421875 C-18.77018194 -5.683522 -8.34861933 -5.04690547 0 0 Z M-33.07421875 6.74609375 C-38.22347373 16.18639455 -38.45552702 28.19967008 -35.82421875 38.49609375 C-33.22249851 46.86736951 -30.33698383 52.57629299 -23.07421875 57.74609375 C-20.78716044 58.88962291 -19.48157113 58.84943814 -16.94921875 58.80859375 C-15.03109375 58.77765625 -15.03109375 58.77765625 -13.07421875 58.74609375 C-13.07421875 58.08609375 -13.07421875 57.42609375 -13.07421875 56.74609375 C-12.49671875 56.49859375 -11.91921875 56.25109375 -11.32421875 55.99609375 C-7.89007982 54.08823879 -5.60600573 51.97039436 -4.02734375 48.3359375 C-0.54253521 35.1904653 -1.16710516 22.01436812 -7.71875 9.91015625 C-10.60874254 5.2961624 -13.7556142 2.13906161 -19.07421875 0.74609375 C-25.65073044 -0.22820428 -28.942383 1.88636984 -33.07421875 6.74609375 Z " fill="#FBFDFC" transform="translate(319.07421875,279.25390625)"/>
<path d="M0 0 C6.23350577 4.25914836 10.31047344 9.22879427 12.40625 16.5390625 C13.24414495 21.22805154 12.95154329 25.14774443 10.1875 29.1875 C5.03329571 32.71406083 -0.56041219 33.05836795 -6.65234375 33.0078125 C-7.66960289 33.00356766 -7.66960289 33.00356766 -8.70741272 32.99923706 C-10.84679766 32.98815416 -12.9857443 32.9630736 -15.125 32.9375 C-16.58658244 32.92745476 -18.04817153 32.91833163 -19.50976562 32.91015625 C-23.06914979 32.88825425 -26.62828203 32.85380866 -30.1875 32.8125 C-29.45000744 34.73141635 -28.69694459 36.64435267 -27.9375 38.5546875 C-27.51984375 39.62058105 -27.1021875 40.68647461 -26.671875 41.78466797 C-24.02271659 47.18842826 -19.85493258 50.19800134 -14.8125 53.25 C-6.77232935 54.97289371 -0.283911 53.5183845 7.34375 50.6875 C9.8125 49.8125 9.8125 49.8125 11.8125 49.8125 C11.44224539 52.52969106 10.96150707 53.66381269 8.9921875 55.62890625 C8.23164063 56.20511719 7.47109375 56.78132813 6.6875 57.375 C5.94242188 57.95378906 5.19734375 58.53257812 4.4296875 59.12890625 C-1.4903039 62.93713952 -6.53379038 64.34964441 -13.4375 64.25 C-14.18185303 64.24170166 -14.92620605 64.23340332 -15.69311523 64.22485352 C-25.05548897 63.94016279 -32.56566459 61.3566933 -39.40234375 54.80078125 C-46.94791161 46.39663674 -49.73448766 38.51832846 -49.48828125 27.21875 C-48.4575019 15.54550858 -43.27283234 7.90456145 -34.515625 0.375 C-24.8700966 -6.67764442 -10.04687123 -5.79553862 0 0 Z M-25.1875 5.8125 C-31.23525539 12.1962418 -31.1875 16.93942171 -31.1875 25.8125 C-21.9475 25.4825 -12.7075 25.1525 -3.1875 24.8125 C-3.68445834 13.51223079 -3.68445834 13.51223079 -9.1875 4.8125 C-15.5478753 0.65878552 -19.29257675 1.26849666 -25.1875 5.8125 Z " fill="#FBFDFC" transform="translate(180.1875,279.1875)"/>
<path d="M0 0 C4.62295082 3.24590164 4.62295082 3.24590164 6 6 C6.4524237 12.22082585 6.4524237 12.22082585 4.875 14.9375 C2.04485189 16.54125059 0.18502524 16.53083754 -3 16 C-4.5625 13.875 -4.5625 13.875 -6 11 C-9.31825144 6.16987868 -9.31825144 6.16987868 -14.625 4.125 C-16.7489522 4.0463351 -18.87459154 4 -21 4 C-21.66 5.65 -22.32 7.3 -23 9 C-23.66 9 -24.32 9 -25 9 C-23.22380973 14.46489621 -23.22380973 14.46489621 -18.8125 17.9375 C-17.4203125 18.4634375 -17.4203125 18.4634375 -16 19 C-16 19.66 -16 20.32 -16 21 C-15.13375 21.25265625 -14.2675 21.5053125 -13.375 21.765625 C-5.22457338 24.74656807 2.35213875 30.43626936 8 37 C9.79005211 42.37015634 10.00459071 48.76234766 8.31640625 54.203125 C5.62511167 59.34003581 1.8637776 61.95370645 -3.48046875 63.90625 C-14.0962119 67.14038332 -22.95062548 66.99395523 -33 62 C-37.35740483 59.14972623 -40.78926689 56.24651014 -42 51 C-42.32405893 47.86228657 -42.28590723 46.43803433 -40.5390625 43.76171875 C-39.59160156 42.73498047 -39.59160156 42.73498047 -38.625 41.6875 C-37.99851563 40.99011719 -37.37203125 40.29273438 -36.7265625 39.57421875 C-35 38 -35 38 -33 38 C-30.07596899 45.50077519 -30.07596899 45.50077519 -29.5625 48.875 C-29.2840625 49.926875 -29.2840625 49.926875 -29 51 C-27.03327085 52.1500831 -27.03327085 52.1500831 -25 53 C-24.67 53.99 -24.34 54.98 -24 56 C-17.78984954 57.16880383 -13.43743445 57.51167642 -8 54 C-6.65328953 50.55840659 -6.70015877 48.83955544 -7.9375 45.375 C-10.21571348 42.75160266 -12.4778778 41.58977276 -15.61328125 40.1640625 C-24.20573071 35.97330973 -34.15908838 30.4896761 -37.6875 21.1875 C-38.58087248 14.93389264 -38.59872046 10.34003681 -35 5 C-25.85301441 -4.65515146 -11.75539762 -5.98456606 0 0 Z " fill="#FBFDFC" transform="translate(245,278)"/>
<path d="M0 0 C0.81251833 3.57993665 1.14166688 6.91897389 1.18945312 10.58691406 C1.20617065 11.68706848 1.22288818 12.7872229 1.2401123 13.92071533 C1.25368774 15.10703552 1.26726318 16.29335571 1.28125 17.515625 C1.30886414 19.38042511 1.30886414 19.38042511 1.33703613 21.28289795 C1.38584123 24.60066037 1.43103358 27.91842614 1.47393799 31.23626709 C1.59925886 40.91943232 1.74299843 50.60181877 1.93359375 60.28393555 C1.97760609 62.7468466 2.01286733 65.20993072 2.0390625 67.6730957 C2.07658651 71.1109983 2.14427245 74.54710201 2.21875 77.984375 C2.2225769 78.99945129 2.22640381 80.01452759 2.23034668 81.06036377 C2.41448153 87.6459172 3.65150723 91.01222682 8 96 C5.23382437 97.38308781 2.98982 97.11210196 -0.1015625 97.09765625 C-1.31328125 97.09443359 -2.525 97.09121094 -3.7734375 97.08789062 C-5.04445313 97.07951172 -6.31546875 97.07113281 -7.625 97.0625 C-8.90375 97.05798828 -10.1825 97.05347656 -11.5 97.04882812 C-14.66671292 97.03701203 -17.83333356 97.02053815 -21 97 C-21 93.06764531 -19.45054659 91.97035951 -17 89 C-15.83940683 85.51822048 -15.86584944 82.78800061 -15.85473633 79.11352539 C-15.85137772 78.4172554 -15.8480191 77.72098541 -15.84455872 77.00361633 C-15.8350586 74.7016115 -15.83310613 72.39967947 -15.83203125 70.09765625 C-15.82881821 68.49726837 -15.82545411 66.89688079 -15.82194519 65.29649353 C-15.81595642 61.94155191 -15.81410505 58.58663604 -15.81469727 55.23168945 C-15.81479892 50.93305553 -15.80114231 46.63458665 -15.78392506 42.33599186 C-15.77280644 39.03058616 -15.77077801 35.72522039 -15.77130699 32.4197979 C-15.77012684 30.83496977 -15.76570306 29.25014061 -15.75797462 27.66533089 C-15.74817667 25.44872597 -15.75105177 23.23247984 -15.75708008 21.01586914 C-15.75565506 19.75472794 -15.75423004 18.49358673 -15.75276184 17.19422913 C-15.98917723 14.13982635 -16.26976824 12.48912944 -18 10 C-18.99 9.34 -19.98 8.68 -21 8 C-21 7.01 -21 6.02 -21 5 C-18.2518872 4.15996552 -15.50180419 3.32777849 -12.75 2.5 C-11.97269531 2.26152344 -11.19539063 2.02304688 -10.39453125 1.77734375 C-9.64042969 1.55175781 -8.88632812 1.32617188 -8.109375 1.09375 C-7.07248535 0.77954102 -7.07248535 0.77954102 -6.01464844 0.45898438 C-4 0 -4 0 0 0 Z " fill="#FBFDFC" transform="translate(412,141)"/>
<path d="M0 0 C0.77528479 3.42573937 1.11918778 6.57239245 1.09765625 10.08203125 C1.09443359 11.01337891 1.09121094 11.94472656 1.08789062 12.90429688 C1.07951172 13.86400391 1.07113281 14.82371094 1.0625 15.8125 C1.05798828 16.79154297 1.05347656 17.77058594 1.04882812 18.77929688 C1.03708684 21.18626111 1.02066419 23.59309857 1 26 C2.04220703 25.75443359 2.04220703 25.75443359 3.10546875 25.50390625 C6.2352816 24.95904004 9.13798083 24.90261517 12.3125 24.9375 C13.91544922 24.95103516 13.91544922 24.95103516 15.55078125 24.96484375 C16.35902344 24.97644531 17.16726563 24.98804688 18 25 C19.125 29.75 19.125 29.75 18 32 C12.39 32 6.78 32 1 32 C1.26117373 38.90532704 1.52782354 45.81041259 1.79956055 52.71533203 C1.89123843 55.0645575 1.98141704 57.41384197 2.07006836 59.76318359 C2.19771949 63.13916374 2.3307528 66.51489527 2.46484375 69.890625 C2.50343002 70.94179504 2.5420163 71.99296509 2.58177185 73.07598877 C2.64172081 74.54706085 2.64172081 74.54706085 2.70288086 76.04785156 C2.75284462 77.3402475 2.75284462 77.3402475 2.80381775 78.65875244 C2.98967279 80.87675463 3.39148529 82.86326496 4 85 C6.83073436 85.50169415 6.83073436 85.50169415 10 85 C12.16026765 82.0929357 12.16026765 82.0929357 14 79 C16.0625 78 16.0625 78 18 78 C18.99 78.66 19.98 79.32 21 80 C21.5625 83.3125 21.5625 83.3125 21 87 C18.54878449 90.02933238 15.69873333 91.76708889 12 93 C4.31532968 93.64126524 -2.66224626 93.83917157 -9 89 C-18.0465022 79.48957461 -15.12299096 62.57161993 -15.0625 50.3125 C-15.05747418 48.5319023 -15.05291319 46.75130323 -15.04882812 44.97070312 C-15.03791 40.64710091 -15.02070521 36.32356597 -15 32 C-17.97 32.495 -17.97 32.495 -21 33 C-20.9375 30.25 -20.9375 30.25 -20 27 C-18.906875 26.505 -17.81375 26.01 -16.6875 25.5 C-13.63299572 24.03457993 -13.08154016 23.23182404 -11.9296875 19.95703125 C-11.50042969 18.15298828 -11.50042969 18.15298828 -11.0625 16.3125 C-9.98950564 11.80874737 -6.17628092 0 0 0 Z " fill="#FBFDFC" transform="translate(428,250)"/>
<path d="M0 0 C2.96042112 2.58249502 4.59480753 4.1801882 5.4453125 8 C5.660658 11.79008074 5.10043343 13.84934985 3 17 C2.34 17.66 1.68 18.32 1 19 C-2.01155797 17.93709719 -4.30564026 16.78540152 -6.9375 14.9375 C-11.04061778 12.34164998 -13.97251698 11.63136672 -18.75 12.5 C-21.44135058 14.29423372 -21.79939551 15.70903884 -22.58935547 18.76611328 C-23.43508186 23.36682462 -23.53287594 28.02125716 -23.6875 32.6875 C-23.72512451 33.75661621 -23.76274902 34.82573242 -23.80151367 35.92724609 C-24.69693014 51.68428093 -24.69693014 51.68428093 -17.25 64.875 C-16.63125 65.431875 -16.63125 65.431875 -16 66 C-18.87018441 67.43509221 -21.33543723 67.11158506 -24.5390625 67.09765625 C-26.49199219 67.09282227 -26.49199219 67.09282227 -28.484375 67.08789062 C-29.86458399 67.07953466 -31.24479232 67.07106971 -32.625 67.0625 C-34.01301926 67.05748501 -35.40104022 67.0529221 -36.7890625 67.04882812 C-40.19275132 67.03700976 -43.59635439 67.02053434 -47 67 C-47.33 66.01 -47.66 65.02 -48 64 C-46.824375 63.319375 -46.824375 63.319375 -45.625 62.625 C-39.62180077 56.62180077 -40.77669518 46.68743611 -40.76641846 38.68005371 C-40.77244065 37.02407362 -40.78174118 35.36810246 -40.79418945 33.7121582 C-40.81258455 31.17584279 -40.81469764 28.63989122 -40.81445312 26.10351562 C-40.81936482 24.47916352 -40.82519162 22.85481388 -40.83203125 21.23046875 C-40.83314407 20.47831589 -40.8342569 19.72616302 -40.83540344 18.95121765 C-40.87029827 13.39919743 -40.87029827 13.39919743 -42 8 C-44.47636012 6.62533375 -44.47636012 6.62533375 -47 6 C-47 4.68 -47 3.36 -47 2 C-32.40318907 -0.29612756 -32.40318907 -0.29612756 -25 0 C-24.67 3.63 -24.34 7.26 -24 11 C-22.865625 9.948125 -21.73125 8.89625 -20.5625 7.8125 C-8.1316279 -2.97117173 -8.1316279 -2.97117173 0 0 Z " fill="#FBFDFC" transform="translate(393,276)"/>
<path d="M0 0 C0.90472618 3.07962689 1.10742162 5.78884933 1.06591797 8.99291992 C1.05128006 10.48048042 1.05128006 10.48048042 1.03634644 11.99809265 C1.01448776 13.59811882 1.01448776 13.59811882 0.9921875 15.23046875 C0.97466292 17.50064651 0.95775544 19.7708291 0.94140625 22.04101562 C0.91052085 25.61122062 0.87508223 29.18118266 0.82861328 32.7512207 C0.78605302 36.20266668 0.76276624 39.6538308 0.7421875 43.10546875 C0.72356659 44.16203171 0.70494568 45.21859467 0.6857605 46.30717468 C0.66434617 52.5528231 1.07296356 58.36240821 4 64 C6.49417159 66.10356857 6.49417159 66.10356857 9 67 C7 69 7 69 4.11083984 69.22705078 C2.30413818 69.21134033 2.30413818 69.21134033 0.4609375 69.1953125 C-1.49199219 69.18564453 -1.49199219 69.18564453 -3.484375 69.17578125 C-4.86458595 69.15906929 -6.24479429 69.14213939 -7.625 69.125 C-9.01301452 69.11497006 -10.40103589 69.10584423 -11.7890625 69.09765625 C-15.19288026 69.07401863 -18.59635506 69.04106867 -22 69 C-21.23213731 65.16868513 -19.79930739 63.71182904 -17 61 C-16.08817081 58.26451244 -15.86480765 56.61101762 -15.83886719 53.79150391 C-15.82925964 52.94697662 -15.8196521 52.10244934 -15.80975342 51.23233032 C-15.8033786 49.86822525 -15.8033786 49.86822525 -15.796875 48.4765625 C-15.79117493 47.53823578 -15.78547485 46.59990906 -15.77960205 45.63314819 C-15.77015606 43.64769619 -15.76361966 41.66222854 -15.75976562 39.67675781 C-15.75005952 36.64360136 -15.71903214 33.61112244 -15.6875 30.578125 C-15.68096977 28.64844152 -15.67571938 26.7187532 -15.671875 24.7890625 C-15.6595282 23.88370758 -15.6471814 22.97835266 -15.63446045 22.04556274 C-15.6515344 17.20498171 -15.82455033 13.9170275 -19 10 C-20.31963709 8.98199424 -21.65009646 7.97751635 -23 7 C-23 6.34 -23 5.68 -23 5 C-7.63333333 0 -7.63333333 0 0 0 Z " fill="#FBFDFC" transform="translate(181,169)"/>
<path d="M0 0 C3.13503802 2.73311007 3.8936201 4.40427254 4.625 8.5 C3.94571098 12.30401851 2.94948557 13.86769889 -0.21875 16.109375 C-3.41376322 17.70688161 -5.53412782 17.69317444 -9 17 C-12 14.375 -12 14.375 -14 11 C-14.09953339 6.12286387 -12.28559752 3.48472465 -9 0 C-5.77839187 -1.61080407 -3.42436421 -0.82657067 0 0 Z " fill="#EF883A" transform="translate(178,145)"/>
<path d="M0 0 C4.50884026 2.31883213 6.93906776 5.06451569 10 9 C9.01 9.495 9.01 9.495 8 10 C5.6171875 8.78515625 5.6171875 8.78515625 2.875 7.0625 C1.96492187 6.49660156 1.05484375 5.93070313 0.1171875 5.34765625 C-0.58148438 4.90292969 -1.28015625 4.45820313 -2 4 C-1.34 3.67 -0.68 3.34 0 3 C0 2.01 0 1.02 0 0 Z " fill="#FBFDFC" transform="translate(224,137)"/>
<path d="M0 0 C4.04152406 0.23316485 6.33802764 0.4228959 9.4375 3.125 C11.38392501 6.70642201 11.53082262 8.98091448 11 13 C10.01 13.66 9.02 14.32 8 15 C8 11.7 8 8.4 8 5 C6.68 4.34 5.36 3.68 4 3 C4 2.34 4 1.68 4 1 C2.68 0.67 1.36 0.34 0 0 Z " fill="#DB8C52" transform="translate(171,144)"/>
<path d="M0 0 C1.32 0 2.64 0 4 0 C4 1.32 4 2.64 4 4 C2.68 3.67 1.36 3.34 0 3 C-0.33 3.66 -0.66 4.32 -1 5 C-0.67 3.35 -0.34 1.7 0 0 Z " fill="#F8852F" transform="translate(175,148)"/>
</svg>
